<mxfile host="Electron" agent="Mozilla/5.0 (Macintosh; Intel Mac OS X 10_15_7) AppleWebKit/537.36 (KHTML, like Gecko) draw.io/26.2.2 Chrome/134.0.6998.178 Electron/35.1.2 Safari/537.36" version="26.2.2">
  <diagram name="Page-1" id="ToXZJ9DblGMK_-7mIr1Q">
    <mxGraphModel dx="1020" dy="748" grid="1" gridSize="10" guides="1" tooltips="1" connect="1" arrows="1" fold="1" page="1" pageScale="1" pageWidth="850" pageHeight="1100" math="0" shadow="0">
      <root>
        <mxCell id="0" />
        <mxCell id="1" parent="0" />
        <mxCell id="eIUCT2vOUyhm1W4N2gBw-1" value="" style="sketch=0;points=[[0,0,0],[0.25,0,0],[0.5,0,0],[0.75,0,0],[1,0,0],[0,1,0],[0.25,1,0],[0.5,1,0],[0.75,1,0],[1,1,0],[0,0.25,0],[0,0.5,0],[0,0.75,0],[1,0.25,0],[1,0.5,0],[1,0.75,0]];outlineConnect=0;fontColor=#232F3E;fillColor=#ED7100;strokeColor=#ffffff;dashed=0;verticalLabelPosition=bottom;verticalAlign=top;align=center;html=1;fontSize=12;fontStyle=0;aspect=fixed;shape=mxgraph.aws4.resourceIcon;resIcon=mxgraph.aws4.eks;" vertex="1" parent="1">
          <mxGeometry x="560" y="492" width="40" height="40" as="geometry" />
        </mxCell>
        <mxCell id="eIUCT2vOUyhm1W4N2gBw-15" value="&lt;b&gt;UI/Application&lt;/b&gt;" style="rounded=0;whiteSpace=wrap;html=1;fillColor=light-dark(#dbd6ff, #ededed);" vertex="1" parent="1">
          <mxGeometry x="23" y="322" width="84" height="50" as="geometry" />
        </mxCell>
        <mxCell id="eIUCT2vOUyhm1W4N2gBw-16" value="&lt;b&gt;MCP Client&lt;/b&gt;" style="rounded=0;whiteSpace=wrap;html=1;fillColor=light-dark(#e2e0ff, #ededed);" vertex="1" parent="1">
          <mxGeometry x="170" y="320" width="120" height="60" as="geometry" />
        </mxCell>
        <mxCell id="eIUCT2vOUyhm1W4N2gBw-17" value="&lt;b&gt;MCP Server&lt;/b&gt;&lt;div&gt;(Tools: get_pods_information,&lt;/div&gt;&lt;div&gt;get_nodes_information,&lt;/div&gt;&lt;div&gt;get_nwpol_information)&lt;/div&gt;" style="rounded=0;whiteSpace=wrap;html=1;fillColor=light-dark(#e0e1ff, #ededed);" vertex="1" parent="1">
          <mxGeometry x="130" y="482" width="190" height="68" as="geometry" />
        </mxCell>
        <mxCell id="eIUCT2vOUyhm1W4N2gBw-18" value="" style="rounded=0;whiteSpace=wrap;html=1;fillColor=none;pointerEvents=0;" vertex="1" parent="1">
          <mxGeometry x="10" y="280" width="330" height="300" as="geometry" />
        </mxCell>
        <mxCell id="eIUCT2vOUyhm1W4N2gBw-19" value="Host" style="text;html=1;align=center;verticalAlign=middle;whiteSpace=wrap;rounded=0;fontStyle=1" vertex="1" parent="1">
          <mxGeometry x="137" y="550" width="60" height="30" as="geometry" />
        </mxCell>
        <mxCell id="eIUCT2vOUyhm1W4N2gBw-23" value="" style="endArrow=classic;html=1;rounded=0;exitX=1;exitY=0.25;exitDx=0;exitDy=0;entryX=0;entryY=0.25;entryDx=0;entryDy=0;" edge="1" parent="1" source="eIUCT2vOUyhm1W4N2gBw-15" target="eIUCT2vOUyhm1W4N2gBw-16">
          <mxGeometry width="50" height="50" relative="1" as="geometry">
            <mxPoint x="130" y="310" as="sourcePoint" />
            <mxPoint x="200" y="310" as="targetPoint" />
          </mxGeometry>
        </mxCell>
        <mxCell id="eIUCT2vOUyhm1W4N2gBw-27" value="" style="endArrow=classic;html=1;rounded=0;entryX=1;entryY=0.75;entryDx=0;entryDy=0;" edge="1" parent="1" target="eIUCT2vOUyhm1W4N2gBw-15">
          <mxGeometry width="50" height="50" relative="1" as="geometry">
            <mxPoint x="168" y="360" as="sourcePoint" />
            <mxPoint x="80" y="419.5" as="targetPoint" />
          </mxGeometry>
        </mxCell>
        <mxCell id="eIUCT2vOUyhm1W4N2gBw-32" value="User Query" style="text;html=1;align=center;verticalAlign=middle;whiteSpace=wrap;rounded=0;" vertex="1" parent="1">
          <mxGeometry x="110" y="290" width="60" height="30" as="geometry" />
        </mxCell>
        <mxCell id="eIUCT2vOUyhm1W4N2gBw-33" value="MCP/ LLM Response" style="text;html=1;align=center;verticalAlign=middle;whiteSpace=wrap;rounded=0;" vertex="1" parent="1">
          <mxGeometry x="107" y="372" width="60" height="30" as="geometry" />
        </mxCell>
        <mxCell id="eIUCT2vOUyhm1W4N2gBw-34" value="" style="endArrow=classic;startArrow=classic;html=1;rounded=0;entryX=0.25;entryY=1;entryDx=0;entryDy=0;exitX=0.375;exitY=0.033;exitDx=0;exitDy=0;exitPerimeter=0;" edge="1" parent="1" source="eIUCT2vOUyhm1W4N2gBw-17" target="eIUCT2vOUyhm1W4N2gBw-16">
          <mxGeometry width="50" height="50" relative="1" as="geometry">
            <mxPoint x="200" y="483" as="sourcePoint" />
            <mxPoint x="130" y="450" as="targetPoint" />
          </mxGeometry>
        </mxCell>
        <mxCell id="eIUCT2vOUyhm1W4N2gBw-35" value="Create connection (get&amp;nbsp; available tools)" style="text;html=1;align=center;verticalAlign=middle;whiteSpace=wrap;rounded=0;" vertex="1" parent="1">
          <mxGeometry x="100" y="430" width="110" height="30" as="geometry" />
        </mxCell>
        <mxCell id="eIUCT2vOUyhm1W4N2gBw-36" value="" style="endArrow=classic;startArrow=classic;html=1;rounded=0;entryX=0.75;entryY=1;entryDx=0;entryDy=0;" edge="1" parent="1" target="eIUCT2vOUyhm1W4N2gBw-16">
          <mxGeometry width="50" height="50" relative="1" as="geometry">
            <mxPoint x="260" y="480" as="sourcePoint" />
            <mxPoint x="290" y="410" as="targetPoint" />
          </mxGeometry>
        </mxCell>
        <mxCell id="eIUCT2vOUyhm1W4N2gBw-37" value="InvokeTool" style="text;html=1;align=center;verticalAlign=middle;whiteSpace=wrap;rounded=0;" vertex="1" parent="1">
          <mxGeometry x="260" y="400" width="60" height="30" as="geometry" />
        </mxCell>
        <mxCell id="eIUCT2vOUyhm1W4N2gBw-38" value="Tool Response" style="text;html=1;align=center;verticalAlign=middle;whiteSpace=wrap;rounded=0;" vertex="1" parent="1">
          <mxGeometry x="260" y="430" width="60" height="30" as="geometry" />
        </mxCell>
        <mxCell id="eIUCT2vOUyhm1W4N2gBw-40" value="AWS Cloud" style="sketch=0;outlineConnect=0;gradientColor=none;html=1;whiteSpace=wrap;fontSize=12;fontStyle=0;shape=mxgraph.aws4.group;grIcon=mxgraph.aws4.group_aws_cloud;strokeColor=light-dark(#729597, #4a5556);fillColor=none;verticalAlign=top;align=left;spacingLeft=30;fontColor=#AAB7B8;dashed=0;pointerEvents=0;" vertex="1" parent="1">
          <mxGeometry x="500" y="270" width="260" height="330" as="geometry" />
        </mxCell>
        <mxCell id="eIUCT2vOUyhm1W4N2gBw-41" value="" style="sketch=0;points=[[0,0,0],[0.25,0,0],[0.5,0,0],[0.75,0,0],[1,0,0],[0,1,0],[0.25,1,0],[0.5,1,0],[0.75,1,0],[1,1,0],[0,0.25,0],[0,0.5,0],[0,0.75,0],[1,0.25,0],[1,0.5,0],[1,0.75,0]];outlineConnect=0;fontColor=#232F3E;fillColor=#01A88D;strokeColor=#ffffff;dashed=0;verticalLabelPosition=bottom;verticalAlign=top;align=center;html=1;fontSize=12;fontStyle=0;aspect=fixed;shape=mxgraph.aws4.resourceIcon;resIcon=mxgraph.aws4.bedrock;" vertex="1" parent="1">
          <mxGeometry x="545.5" y="329.5" width="39" height="39" as="geometry" />
        </mxCell>
        <mxCell id="eIUCT2vOUyhm1W4N2gBw-42" value="Amazon Bedrock (Nova FM/Anthropic FM)" style="text;html=1;align=center;verticalAlign=middle;whiteSpace=wrap;rounded=0;" vertex="1" parent="1">
          <mxGeometry x="506" y="380" width="120" height="30" as="geometry" />
        </mxCell>
        <mxCell id="eIUCT2vOUyhm1W4N2gBw-44" value="" style="endArrow=classic;startArrow=classic;html=1;rounded=0;exitX=1;exitY=0.5;exitDx=0;exitDy=0;entryX=0;entryY=0.5;entryDx=0;entryDy=0;entryPerimeter=0;" edge="1" parent="1" source="eIUCT2vOUyhm1W4N2gBw-16" target="eIUCT2vOUyhm1W4N2gBw-41">
          <mxGeometry width="50" height="50" relative="1" as="geometry">
            <mxPoint x="310" y="210" as="sourcePoint" />
            <mxPoint x="370" y="230" as="targetPoint" />
          </mxGeometry>
        </mxCell>
        <mxCell id="eIUCT2vOUyhm1W4N2gBw-45" value="" style="endArrow=classic;startArrow=classic;html=1;rounded=0;exitX=1;exitY=0.5;exitDx=0;exitDy=0;entryX=0;entryY=0.5;entryDx=0;entryDy=0;entryPerimeter=0;" edge="1" parent="1" source="eIUCT2vOUyhm1W4N2gBw-17" target="eIUCT2vOUyhm1W4N2gBw-1">
          <mxGeometry width="50" height="50" relative="1" as="geometry">
            <mxPoint x="300" y="650" as="sourcePoint" />
            <mxPoint x="350" y="600" as="targetPoint" />
          </mxGeometry>
        </mxCell>
        <mxCell id="eIUCT2vOUyhm1W4N2gBw-46" value="EKS Cluster/Kubernetes API server" style="text;html=1;align=center;verticalAlign=middle;whiteSpace=wrap;rounded=0;" vertex="1" parent="1">
          <mxGeometry x="515" y="542" width="150" height="30" as="geometry" />
        </mxCell>
        <mxCell id="eIUCT2vOUyhm1W4N2gBw-47" value="&lt;font style=&quot;font-size: 24px;&quot;&gt;K8s Debugger&amp;nbsp;&lt;/font&gt;&lt;div&gt;&lt;font style=&quot;font-size: 24px;&quot;&gt;(High Level Architecture)&lt;/font&gt;&lt;/div&gt;" style="text;html=1;align=center;verticalAlign=middle;whiteSpace=wrap;rounded=0;" vertex="1" parent="1">
          <mxGeometry x="150" y="180" width="450" height="60" as="geometry" />
        </mxCell>
        <mxCell id="eIUCT2vOUyhm1W4N2gBw-48" value="1" style="ellipse;whiteSpace=wrap;html=1;aspect=fixed;rotation=0;gradientColor=#0057D2;strokeColor=none;gradientDirection=east;fillColor=#2395FF;rounded=0;pointerEvents=0;fontFamily=Helvetica;fontSize=16;fontColor=#FFFFFF;spacingTop=4;spacingBottom=4;spacingLeft=4;spacingRight=4;points=[];fontStyle=1" vertex="1" parent="1">
          <mxGeometry x="190" y="400" width="20" height="20" as="geometry" />
        </mxCell>
        <mxCell id="eIUCT2vOUyhm1W4N2gBw-54" value="7" style="ellipse;whiteSpace=wrap;html=1;aspect=fixed;rotation=0;gradientColor=#223548;strokeColor=none;gradientDirection=east;fillColor=#5b738b;rounded=0;pointerEvents=0;fontFamily=Helvetica;fontSize=16;fontColor=#FFFFFF;spacingTop=4;spacingBottom=4;spacingLeft=4;spacingRight=4;points=[];fontStyle=1" vertex="1" parent="1">
          <mxGeometry x="125" y="350" width="20" height="20" as="geometry" />
        </mxCell>
        <mxCell id="eIUCT2vOUyhm1W4N2gBw-55" value="5" style="ellipse;whiteSpace=wrap;html=1;aspect=fixed;rotation=0;gradientColor=#223548;strokeColor=none;gradientDirection=east;fillColor=#5b738b;rounded=0;pointerEvents=0;fontFamily=Helvetica;fontSize=16;fontColor=#FFFFFF;spacingTop=4;spacingBottom=4;spacingLeft=4;spacingRight=4;points=[];fontStyle=1" vertex="1" parent="1">
          <mxGeometry x="240" y="399" width="20" height="20" as="geometry" />
        </mxCell>
        <mxCell id="eIUCT2vOUyhm1W4N2gBw-56" value="3" style="ellipse;whiteSpace=wrap;html=1;aspect=fixed;rotation=0;gradientColor=#223548;strokeColor=none;gradientDirection=east;fillColor=#5b738b;rounded=0;pointerEvents=0;fontFamily=Helvetica;fontSize=16;fontColor=#FFFFFF;spacingTop=4;spacingBottom=4;spacingLeft=4;spacingRight=4;points=[];fontStyle=1" vertex="1" parent="1">
          <mxGeometry x="310" y="322" width="20" height="20" as="geometry" />
        </mxCell>
        <mxCell id="eIUCT2vOUyhm1W4N2gBw-57" value="2" style="ellipse;whiteSpace=wrap;html=1;aspect=fixed;rotation=0;gradientColor=#223548;strokeColor=none;gradientDirection=east;fillColor=#5b738b;rounded=0;pointerEvents=0;fontFamily=Helvetica;fontSize=16;fontColor=#FFFFFF;spacingTop=4;spacingBottom=4;spacingLeft=4;spacingRight=4;points=[];fontStyle=1" vertex="1" parent="1">
          <mxGeometry x="125" y="320" width="20" height="20" as="geometry" />
        </mxCell>
        <mxCell id="eIUCT2vOUyhm1W4N2gBw-58" value="LLM request (input, available tools)" style="text;html=1;align=center;verticalAlign=middle;whiteSpace=wrap;rounded=0;" vertex="1" parent="1">
          <mxGeometry x="354" y="321" width="114" height="30" as="geometry" />
        </mxCell>
        <mxCell id="eIUCT2vOUyhm1W4N2gBw-59" value="Tool request (toolName)" style="text;html=1;align=center;verticalAlign=middle;whiteSpace=wrap;rounded=0;" vertex="1" parent="1">
          <mxGeometry x="361" y="359" width="104" height="30" as="geometry" />
        </mxCell>
        <mxCell id="eIUCT2vOUyhm1W4N2gBw-60" value="4" style="ellipse;whiteSpace=wrap;html=1;aspect=fixed;rotation=0;gradientColor=#223548;strokeColor=none;gradientDirection=east;fillColor=#5b738b;rounded=0;pointerEvents=0;fontFamily=Helvetica;fontSize=16;fontColor=#FFFFFF;spacingTop=4;spacingBottom=4;spacingLeft=4;spacingRight=4;points=[];fontStyle=1" vertex="1" parent="1">
          <mxGeometry x="495" y="352" width="20" height="20" as="geometry" />
        </mxCell>
        <mxCell id="eIUCT2vOUyhm1W4N2gBw-61" value="6" style="ellipse;whiteSpace=wrap;html=1;aspect=fixed;rotation=0;gradientColor=#223548;strokeColor=none;gradientDirection=east;fillColor=#5b738b;rounded=0;pointerEvents=0;fontFamily=Helvetica;fontSize=16;fontColor=#FFFFFF;spacingTop=4;spacingBottom=4;spacingLeft=4;spacingRight=4;points=[];fontStyle=1" vertex="1" parent="1">
          <mxGeometry x="240" y="446" width="20" height="20" as="geometry" />
        </mxCell>
        <mxCell id="eIUCT2vOUyhm1W4N2gBw-62" value="get (pods, nodes, nw policy,..)" style="text;html=1;align=center;verticalAlign=middle;whiteSpace=wrap;rounded=0;" vertex="1" parent="1">
          <mxGeometry x="346" y="520" width="160" height="30" as="geometry" />
        </mxCell>
      </root>
    </mxGraphModel>
  </diagram>
</mxfile>
